<svg width="16" height="15" viewBox="0 0 16 15" fill="none" xmlns="http://www.w3.org/2000/svg">
<g clip-path="url(#clip0)">
<path d="M13.1973 0H2.5918C1.38033 0 0.394531 0.985794 0.394531 2.19727V12.8027C0.394531 14.0142 1.38033 15 2.5918 15H13.1973C14.4087 15 15.3945 14.0142 15.3945 12.8027V2.19727C15.3945 0.985794 14.4087 0 13.1973 0ZM7.92383 11.4258C5.74293 11.4258 3.96875 9.6516 3.96875 7.4707C3.96875 5.2898 5.74293 3.51562 7.92383 3.51562C10.1047 3.51562 11.8789 5.2898 11.8789 7.4707C11.8789 9.6516 10.1047 11.4258 7.92383 11.4258ZM12.3184 4.39453C11.5914 4.39453 11 3.8031 11 3.07617C11 2.34924 11.5914 1.75781 12.3184 1.75781C13.0453 1.75781 13.6367 2.34924 13.6367 3.07617C13.6367 3.8031 13.0453 4.39453 12.3184 4.39453Z" fill="white"/>
<path d="M12.3184 2.63672C12.0759 2.63672 11.8789 2.83367 11.8789 3.07617C11.8789 3.31867 12.0759 3.51562 12.3184 3.51562C12.5609 3.51562 12.7578 3.31867 12.7578 3.07617C12.7578 2.83367 12.5609 2.63672 12.3184 2.63672Z" fill="white"/>
<path d="M7.92383 4.39453C6.22781 4.39453 4.84766 5.77469 4.84766 7.4707C4.84766 9.16672 6.22781 10.5469 7.92383 10.5469C9.61984 10.5469 11 9.16672 11 7.4707C11 5.77469 9.61984 4.39453 7.92383 4.39453Z" fill="white"/>
</g>
<defs>
<clipPath id="clip0">
<rect width="15" height="15" fill="white" transform="translate(0.394531)"/>
</clipPath>
</defs>
</svg>
