<svg width="24" height="24" viewBox="0 0 24 24" fill="none" xmlns="http://www.w3.org/2000/svg">
<g clip-path="url(#clip0)">
<path d="M22.1884 10.9531L2.98765 0.152723C2.61804 -0.0536851 2.15962 -0.051285 1.79481 0.162323C1.42759 0.378331 1.19958 0.771946 1.19958 1.19916V22.8C1.19958 23.2272 1.42759 23.6208 1.79481 23.8368C1.97961 23.9448 2.19082 24 2.39963 24C2.60364 24 2.80525 23.9496 2.98765 23.8464L22.1884 13.046C22.5652 12.8324 22.8004 12.434 22.8004 11.9996C22.8004 11.5651 22.5652 11.1667 22.1884 10.9531ZM3.59967 20.7479V3.25124L19.1523 11.9996L3.59967 20.7479Z" fill="#121730"/>
</g>
<defs>
<clipPath id="clip0">
<rect width="24" height="24" fill="white"/>
</clipPath>
</defs>
</svg>
