<svg width="20" height="19" viewBox="0 0 20 19" fill="none" xmlns="http://www.w3.org/2000/svg">
<g clip-path="url(#clip0)">
<path d="M6.58433 16.6336C13.3064 16.6336 16.9824 11.0645 16.9824 6.23551C16.9824 6.07734 16.9791 5.91983 16.972 5.76318C17.6855 5.24728 18.3057 4.6035 18.795 3.87072C18.1402 4.16189 17.4354 4.35764 16.6963 4.4462C17.4508 3.99359 18.0301 3.27791 18.3033 2.42476C17.5972 2.84339 16.8152 3.14752 15.9827 3.31179C15.3158 2.60145 14.3663 2.15723 13.315 2.15723C11.2969 2.15723 9.66023 3.79381 9.66023 5.81122C9.66023 6.09815 9.69236 6.37701 9.755 6.64455C6.71766 6.49172 4.02422 5.03759 2.22195 2.82628C1.90823 3.36626 1.72719 3.9937 1.72719 4.66319C1.72719 5.93094 2.37239 7.05043 3.35342 7.7051C2.75386 7.68669 2.19069 7.5221 1.69832 7.24814C1.69777 7.2635 1.69777 7.27842 1.69777 7.29476C1.69777 9.06468 2.95746 10.5424 4.62988 10.8773C4.3227 10.9608 3.9995 11.0058 3.66617 11.0058C3.43109 11.0058 3.2019 10.9827 2.97924 10.9399C3.44449 12.392 4.79371 13.4486 6.39326 13.4783C5.1424 14.4586 3.56671 15.0426 1.8542 15.0426C1.55965 15.0426 1.26848 15.0257 0.982422 14.992C2.59984 16.0287 4.52041 16.6337 6.58444 16.6337" fill="#121730"/>
</g>
<defs>
<clipPath id="clip0">
<rect width="19" height="19" fill="#121730" transform="translate(0.394531)"/>
</clipPath>
</defs>
</svg>
