<svg width="18" height="12" viewBox="0 0 18 12" fill="none" xmlns="http://www.w3.org/2000/svg">
<path d="M17.9046 10.14C17.8828 10.093 17.8625 10.0541 17.8436 10.0228C17.5313 9.46039 16.9345 8.77001 16.0536 7.95151L16.0349 7.93277L16.0256 7.92357L16.0162 7.91415H16.0068C15.6069 7.53302 15.3538 7.27675 15.2477 7.14555C15.0537 6.89562 15.0103 6.64263 15.1163 6.3863C15.1912 6.19263 15.4726 5.78363 15.9598 5.15873C16.216 4.82756 16.419 4.56214 16.5689 4.36216C17.6499 2.92507 18.1185 2.00675 17.9747 1.60684L17.9189 1.51339C17.8814 1.45713 17.7845 1.40566 17.6285 1.35872C17.4721 1.31188 17.2723 1.30413 17.0285 1.33535L14.3295 1.35399C14.2858 1.3385 14.2234 1.33994 14.142 1.35872C14.0608 1.37749 14.0201 1.38691 14.0201 1.38691L13.9732 1.41038L13.9359 1.43858C13.9046 1.45723 13.8703 1.49002 13.8327 1.53689C13.7954 1.5836 13.7642 1.63842 13.7392 1.70089C13.4454 2.45689 13.1113 3.15977 12.7363 3.80952C12.5051 4.19695 12.2928 4.53272 12.0989 4.81702C11.9053 5.10122 11.7428 5.31062 11.6117 5.44484C11.4804 5.57919 11.3619 5.68683 11.2555 5.76814C11.1493 5.84948 11.0682 5.88384 11.012 5.87127C10.9557 5.8587 10.9027 5.84623 10.8525 5.83375C10.7651 5.77749 10.6948 5.70098 10.6418 5.60414C10.5885 5.50731 10.5527 5.38543 10.5339 5.2386C10.5153 5.09167 10.5043 4.9653 10.5011 4.85904C10.4982 4.75292 10.4995 4.60281 10.5059 4.40914C10.5124 4.21537 10.5153 4.08427 10.5153 4.01553C10.5153 3.77807 10.5199 3.52036 10.5292 3.24233C10.5387 2.9643 10.5463 2.74401 10.5527 2.58172C10.5591 2.41927 10.562 2.2474 10.562 2.0662C10.562 1.885 10.551 1.7429 10.5292 1.63977C10.5077 1.53676 10.4746 1.43678 10.4311 1.33984C10.3872 1.24301 10.3231 1.1681 10.2389 1.11492C10.1546 1.06181 10.0498 1.01966 9.92498 0.98835C9.59381 0.91341 9.1721 0.87287 8.65967 0.866568C7.49762 0.854094 6.75094 0.929133 6.4198 1.09158C6.2886 1.16022 6.16987 1.254 6.06371 1.37263C5.95122 1.51014 5.93553 1.58518 6.01674 1.59752C6.39167 1.65369 6.6571 1.78804 6.81331 2.00045L6.86961 2.11301C6.9134 2.19422 6.95712 2.33799 7.00088 2.54414C7.04457 2.75028 7.07276 2.97832 7.08517 3.22812C7.11635 3.68429 7.11635 4.07478 7.08517 4.39962C7.05389 4.72459 7.02435 4.97757 6.99615 5.15877C6.96795 5.33996 6.9258 5.48679 6.86961 5.59922C6.81331 5.71168 6.77586 5.78041 6.75708 5.80536C6.73834 5.83031 6.72271 5.84603 6.71031 5.8522C6.6291 5.88332 6.54464 5.89917 6.45722 5.89917C6.36968 5.89917 6.26352 5.85539 6.13859 5.76787C6.01369 5.68036 5.88406 5.56015 5.74971 5.40706C5.61535 5.25393 5.46383 5.03994 5.29508 4.76506C5.12645 4.49018 4.9515 4.16531 4.7703 3.79045L4.62039 3.51859C4.52667 3.34369 4.39865 3.08904 4.2362 2.75484C4.07365 2.42052 3.92997 2.09712 3.80507 1.78472C3.75515 1.65352 3.68014 1.55363 3.58019 1.4849L3.53328 1.4567C3.5021 1.43175 3.45204 1.40526 3.38337 1.37703C3.3146 1.34884 3.24284 1.32862 3.1678 1.31618L0.599915 1.33482C0.337509 1.33482 0.159465 1.39427 0.0657162 1.513L0.0281969 1.56916C0.00945368 1.60044 0 1.6504 0 1.71917C0 1.78791 0.0187432 1.87227 0.0562625 1.97216C0.431127 2.85319 0.838784 3.70287 1.27923 4.52133C1.71968 5.3398 2.10243 5.99909 2.42723 6.49863C2.7521 6.99853 3.08325 7.47032 3.42066 7.91379C3.75807 8.35743 3.98141 8.64173 4.09069 8.76663C4.20009 8.89176 4.28603 8.98531 4.3485 9.04777L4.58284 9.27266C4.73278 9.42264 4.95297 9.60226 5.24351 9.81152C5.53411 10.0209 5.85583 10.2271 6.20883 10.4303C6.5619 10.6332 6.97265 10.7987 7.44129 10.9268C7.90987 11.055 8.36595 11.1064 8.80958 11.0816H9.88737C10.1059 11.0627 10.2716 10.994 10.3841 10.8754L10.4214 10.8284C10.4465 10.7911 10.4699 10.7332 10.4916 10.6552C10.5135 10.5771 10.5244 10.4911 10.5244 10.3975C10.518 10.1289 10.5385 9.88679 10.5852 9.67126C10.6319 9.45579 10.6852 9.29334 10.7447 9.18393C10.8042 9.07463 10.8714 8.98239 10.9461 8.90761C11.0211 8.83267 11.0744 8.78727 11.1057 8.77165C11.1369 8.75592 11.1617 8.74526 11.1805 8.73886C11.3304 8.6889 11.5069 8.73728 11.7101 8.88424C11.9132 9.03107 12.1037 9.21236 12.2819 9.42782C12.4599 9.64349 12.6739 9.88544 12.9238 10.1541C13.1738 10.4228 13.3924 10.6225 13.5798 10.7539L13.7671 10.8664C13.8923 10.9414 14.0547 11.0101 14.2547 11.0726C14.4543 11.135 14.6292 11.1507 14.7794 11.1194L17.1785 11.082C17.4158 11.082 17.6004 11.0427 17.7314 10.9648C17.8626 10.8867 17.9406 10.8006 17.9657 10.7071C17.9908 10.6134 17.9922 10.5071 17.9705 10.3883C17.9483 10.2697 17.9264 10.1868 17.9046 10.14Z" fill="white"/>
</svg>
